<svg width="243" height="77" viewBox="0 0 243 77" fill="none" xmlns="http://www.w3.org/2000/svg">
<g clip-path="url(#clip0_27_5973)">
<path fill-rule="evenodd" clip-rule="evenodd" d="M2.04281 37.0477V29.1934H9.36954C12.5675 29.1934 14.3669 30.6776 14.3669 32.8782V32.936C14.3669 35.2739 12.7069 36.6809 10.2618 36.9855V38.4461C13.6484 38.6455 15.4823 40.0333 15.4823 42.3047V42.3604C15.4823 44.8742 13.3095 46.4442 9.88215 46.4442H2.04281V38.4182V37.0477ZM12.4817 37.5346C14.1096 36.8761 15.8812 35.5055 15.8812 32.7923V32.7344C15.8812 29.736 13.2817 27.8228 9.39742 27.8228H0.558594V47.8168H9.8264C14.1396 47.8168 16.9965 45.702 16.9965 42.3604V42.3047C16.9965 39.5336 14.8796 38.163 12.4817 37.5346ZM226.936 47.8168V27.8228H242.019V31.7349H231.307V35.7908H240.732V39.7051H231.307V43.9025H242.16V47.8168H226.936ZM212.739 48.16C206.513 48.16 202.23 43.7889 202.23 37.8756V37.8177C202.23 32.1339 206.657 27.4796 212.713 27.4796C216.311 27.4796 218.481 28.4512 220.568 30.2208L217.797 33.5624C216.255 32.2776 214.883 31.5355 212.57 31.5355C209.37 31.5355 206.828 34.3623 206.828 37.762V37.8177C206.828 41.4746 209.34 44.16 212.886 44.16C214.484 44.16 215.912 43.761 217.025 42.961V40.1041H212.598V36.3056H221.283V44.9878C219.225 46.7315 216.396 48.16 212.739 48.16ZM193.147 47.8168L183.463 35.1067V47.8168H179.123V27.8228H183.178L192.546 40.1319V27.8228H196.89V47.8168H193.147ZM166.613 39.4478L163.953 32.964L161.298 39.4478H166.613ZM161.298 39.4478L157.898 47.8168H153.414L161.982 27.6791H166.04L174.609 47.8168H170.01L166.613 39.4478H161.298ZM144.504 47.8168V39.7888H136.393V47.8168H131.994V27.8228H136.393V35.7351H144.504V27.8228H148.903V47.8168H144.504ZM118.854 48.16C112.969 48.16 108.599 43.6173 108.599 37.8756V37.8177C108.599 32.1339 112.883 27.4796 119.024 27.4796C122.796 27.4796 125.053 28.7365 126.908 30.5639L124.109 33.7918C122.567 32.3913 120.995 31.5355 118.996 31.5355C115.626 31.5355 113.196 34.3345 113.196 37.762V37.8177C113.196 41.2472 115.568 44.1041 118.996 44.1041C121.282 44.1041 122.681 43.1883 124.253 41.7599L127.049 44.5889C124.995 46.7894 122.71 48.16 118.854 48.16ZM90.8574 40.962V47.8168H89.3738V27.8228H90.8574V40.962ZM102.43 27.8228H104.458L95.7177 36.6466L104.829 47.8168H102.888L93.8325 36.6895L102.43 27.8228ZM75.9191 48.16C70.2053 48.16 65.98 43.6173 65.98 37.8756V37.8177C65.98 32.1639 70.2053 27.4796 75.977 27.4796C79.5482 27.4796 81.6887 28.7923 83.7456 30.6775L82.6903 31.7628C80.9466 30.077 78.9455 28.8223 75.9471 28.8223C71.149 28.8223 67.52 32.7344 67.52 37.762V37.8177C67.52 42.8752 71.2069 46.8173 75.977 46.8173C78.8597 46.8173 80.8308 45.7021 82.8597 43.7031L83.8592 44.6747C81.7466 46.7595 79.4624 48.16 75.9191 48.16ZM58.8377 37.8177C58.8377 32.8781 55.2409 28.8223 50.2992 28.8223C45.3554 28.8223 41.8143 32.8202 41.8143 37.762V37.8177C41.8143 42.7615 45.4133 46.8173 50.3549 46.8173C55.2966 46.8173 58.8377 42.8173 58.8377 37.8756V37.8177ZM50.2992 48.16C44.2422 48.16 40.2721 43.332 40.2721 37.8756V37.8177C40.2721 32.3634 44.3001 27.4796 50.3549 27.4796C56.4119 27.4796 60.3799 32.3076 60.3799 37.762C60.4099 37.7898 60.4099 37.7898 60.3799 37.8177C60.3799 43.2741 56.354 48.16 50.2992 48.16ZM23.1929 47.8168V27.8228H24.6793V46.4442H36.4179V47.8168H23.1929Z" fill="white"/>
</g>
<defs>
<clipPath id="clip0_27_5973">
<rect width="242.365" height="76.1719" fill="white" transform="translate(0.427734 0.359375)"/>
</clipPath>
</defs>
</svg>
